<svg width="161" height="48" viewBox="0 0 161 48" fill="none" xmlns="http://www.w3.org/2000/svg">
<path d="M1.74865 34.5457V19.6821H4.37164V34.5457C4.37164 35.2451 4.44935 35.8183 4.60479 36.2652C4.77966 36.6926 5.04195 37.0035 5.39168 37.1978C5.74142 37.3726 6.08143 37.4892 6.41173 37.5475C6.74203 37.6058 7.1792 37.6349 7.72322 37.6349V40.0831C5.54712 40.0831 4.00248 39.6653 3.08929 38.8299C2.19553 37.9944 1.74865 36.5663 1.74865 34.5457ZM11.2069 27.9299C12.5669 26.5116 14.267 25.8024 16.3071 25.8024C17.298 25.8024 18.2209 25.9967 19.0758 26.3853C19.9501 26.7544 20.7079 27.2693 21.3491 27.9299C22.0097 28.5905 22.5246 29.3677 22.8937 30.2614C23.2629 31.1358 23.4475 32.0781 23.4475 33.0884C23.4475 34.0988 23.2629 35.0508 22.8937 35.9446C22.544 36.8189 22.0485 37.5864 21.4074 38.247C20.7662 38.9076 20.0084 39.4322 19.1341 39.8208C18.2598 40.1899 17.3174 40.3745 16.3071 40.3745C15.2774 40.3745 14.3253 40.1899 13.451 39.8208C12.5961 39.4322 11.848 38.9076 11.2069 38.247C10.5657 37.5864 10.0605 36.8189 9.69137 35.9446C9.34164 35.0508 9.16677 34.0988 9.16677 33.0884C9.16677 31.0289 9.84681 29.3094 11.2069 27.9299ZM16.3071 28.2505C14.947 28.2505 13.8493 28.6974 13.0138 29.5911C12.1978 30.4849 11.7898 31.6507 11.7898 33.0884C11.7898 34.5262 12.1978 35.692 13.0138 36.5857C13.8493 37.4795 14.947 37.9264 16.3071 37.9264C17.6866 37.9264 18.7844 37.4795 19.6004 36.5857C20.4165 35.6726 20.8245 34.5068 20.8245 33.0884C20.8245 31.6701 20.4165 30.514 19.6004 29.6203C18.7844 28.7071 17.6866 28.2505 16.3071 28.2505ZM36.0692 37.0229L37.8178 38.7424C36.4772 39.8305 34.9423 40.3745 33.213 40.3745C31.0564 40.3745 29.3272 39.6848 28.0254 38.3053C26.7236 36.9063 26.0727 35.1674 26.0727 33.0884C26.0727 31.0483 26.7527 29.3288 28.1128 27.9299C29.4923 26.5116 31.1924 25.8024 33.213 25.8024C34.9423 25.8024 36.4772 26.3464 37.8178 27.4345L36.0983 29.1831C35.2823 28.5614 34.3205 28.2505 33.213 28.2505C31.8724 28.2505 30.8038 28.6974 30.0072 29.5911C29.23 30.4655 28.8414 31.6312 28.8414 33.0884C28.8414 34.5457 29.23 35.7211 30.0072 36.6149C30.8038 37.4892 31.8724 37.9264 33.213 37.9264C34.34 37.9264 35.292 37.6252 36.0692 37.0229ZM51.8845 40.0831H46.8425C44.6859 40.0831 43.1412 39.7625 42.2086 39.1213C41.3731 38.5578 40.8388 37.8875 40.6057 37.1103C40.3919 36.3137 40.2851 35.2743 40.2851 33.9919V26.0938H42.8498V33.9628C42.8498 34.3125 42.8595 34.6137 42.8789 34.8662C42.8983 35.0994 42.9664 35.4103 43.0829 35.7989C43.1995 36.168 43.3647 36.4789 43.5784 36.7315C43.7921 36.9646 44.103 37.1783 44.511 37.3726C44.919 37.5475 45.4145 37.6349 45.9974 37.6349H49.3198V26.0938H51.8845V40.0831ZM55.686 26.0938H68.5386C69.9181 26.0938 71.0159 26.3561 71.8319 26.8807C72.6674 27.4053 73.2114 28.0853 73.464 28.9208C73.736 29.7563 73.872 30.7569 73.872 31.9227V40.0831H71.3073V31.9227C71.3073 30.4072 70.8507 29.4066 69.9375 28.9208C69.4712 28.6682 68.5289 28.5419 67.1105 28.5419H65.9156V40.0831H63.3509V28.5419H58.2507V40.0831H55.686V26.0938ZM87.075 26.0938V28.5419H81.9165C81.353 28.5419 80.8673 28.6488 80.4593 28.8625C80.0513 29.0762 79.8472 29.3774 79.8472 29.766C79.8472 29.9992 79.8958 30.2129 79.993 30.4072C80.0901 30.582 80.197 30.7278 80.3136 30.8443C80.4496 30.9609 80.6439 31.0872 80.8964 31.2232C81.1685 31.3398 81.3725 31.4272 81.5085 31.4855C81.6639 31.5244 82.2856 31.7187 83.3737 32.0684C84.4618 32.4181 85.2681 32.7096 85.7927 32.9427C86.3173 33.1759 86.7156 33.4965 86.9876 33.9045C87.279 34.2931 87.4636 34.6817 87.5413 35.0702C87.619 35.4394 87.6579 35.8086 87.6579 36.1777C87.6579 38.7813 85.8704 40.0831 82.2954 40.0831H77.2534V37.6349H82.2954C84.1217 37.6349 85.0349 37.1492 85.0349 36.1777C85.0349 35.7114 84.7629 35.3228 84.2189 35.012C83.6943 34.7011 83.0434 34.4388 82.2662 34.2251C81.5085 34.0113 80.741 33.7685 79.9638 33.4965C79.2061 33.205 78.5552 32.7484 78.0112 32.1267C77.4866 31.4855 77.2243 30.6986 77.2243 29.766C77.2243 28.5808 77.6809 27.6773 78.594 27.0556C79.5072 26.4144 80.6147 26.0938 81.9165 26.0938H87.075Z" fill="#221F1F"/>
<path d="M101.467 37.705C102.027 37.4692 102.702 37.4892 103.138 37.9119V37.9119C103.67 38.427 103.632 39.3029 102.979 39.6527C101.922 40.2192 100.763 40.5024 99.5006 40.5024C97.3273 40.5024 95.5847 39.8179 94.2728 38.449C92.961 37.0609 92.3051 35.3353 92.3051 33.2723C92.3051 31.2478 92.9903 29.5415 94.3609 28.1534C95.7511 26.7459 97.4643 26.0422 99.5006 26.0422C100.768 26.0422 101.933 26.3279 102.993 26.8993C103.641 27.2485 103.686 28.1172 103.166 28.6382V28.6382C102.731 29.0735 102.048 29.1029 101.483 28.8593C100.884 28.6007 100.223 28.4715 99.5006 28.4715C98.1496 28.4715 97.0727 28.9149 96.27 29.8018C95.4868 30.6694 95.0952 31.8263 95.0952 33.2723C95.0952 34.7183 95.4868 35.8848 96.27 36.7717C97.0727 37.6393 98.1496 38.0731 99.5006 38.0731C100.228 38.0731 100.884 37.9504 101.467 37.705Z" fill="#1967D2"/>
<path d="M106.627 34.7183V21.2905C106.627 20.5606 107.219 19.9689 107.949 19.9689V19.9689C108.679 19.9689 109.271 20.5606 109.271 21.2905V34.7183C109.271 35.4124 109.349 35.9812 109.506 36.4246C109.682 36.8488 109.946 37.1573 110.299 37.3501C110.651 37.5236 110.994 37.6393 111.327 37.6971C111.362 37.7033 111.399 37.7091 111.436 37.7146C112.1 37.811 112.648 38.3277 112.648 38.9985V38.9985C112.648 39.6694 112.103 40.2214 111.434 40.1656C109.871 40.0352 108.719 39.6365 107.978 38.9696C107.078 38.1406 106.627 36.7235 106.627 34.7183Z" fill="#1967D2"/>
<path d="M116.159 28.1534C117.529 26.7459 119.243 26.0422 121.299 26.0422C122.297 26.0422 123.227 26.235 124.089 26.6206C124.97 26.9869 125.733 27.4978 126.379 28.1534C127.045 28.8089 127.564 29.5801 127.936 30.467C128.308 31.3346 128.494 32.2697 128.494 33.2723C128.494 34.2749 128.308 35.2196 127.936 36.1065C127.584 36.9741 127.084 37.7357 126.438 38.3912C125.792 39.0467 125.028 39.5673 124.147 39.9529C123.266 40.3192 122.317 40.5024 121.299 40.5024C120.261 40.5024 119.301 40.3192 118.42 39.9529C117.559 39.5673 116.805 39.0467 116.159 38.3912C115.513 37.7357 115.004 36.9741 114.632 36.1065C114.279 35.2196 114.103 34.2749 114.103 33.2723C114.103 31.2286 114.788 29.5223 116.159 28.1534ZM121.299 28.4715C119.928 28.4715 118.822 28.9149 117.98 29.8018C117.157 30.6887 116.746 31.8455 116.746 33.2723C116.746 34.699 117.157 35.8558 117.98 36.7427C118.822 37.6296 119.928 38.0731 121.299 38.0731C122.689 38.0731 123.795 37.6296 124.617 36.7427C125.44 35.8366 125.851 34.6797 125.851 33.2723C125.851 31.8648 125.44 30.7176 124.617 29.8307C123.795 28.9246 122.689 28.4715 121.299 28.4715Z" fill="#1967D2"/>
<path d="M143.269 35.1322C143.269 37.9384 140.995 40.2132 138.188 40.2132V40.2132C136.015 40.2132 134.458 39.8951 133.519 39.2588C132.677 38.6997 132.138 38.0345 131.903 37.2633C131.688 36.4728 131.58 35.4413 131.58 34.1688V27.6236C131.58 26.9099 132.159 26.3314 132.873 26.3314V26.3314C133.586 26.3314 134.165 26.9099 134.165 27.6236V34.1399C134.165 34.4869 134.175 34.7858 134.194 35.0364C134.214 35.2678 134.282 35.5763 134.4 35.9619C134.517 36.3282 134.684 36.6367 134.899 36.8873C135.114 37.1187 135.428 37.3308 135.839 37.5236C136.25 37.6971 136.749 37.7839 137.337 37.7839V37.7839C139.186 37.7839 140.685 36.2848 140.685 34.4357V27.6236C140.685 26.9099 141.263 26.3314 141.977 26.3314V26.3314C142.691 26.3314 143.269 26.9099 143.269 27.6236V35.1322Z" fill="#1967D2"/>
<path d="M157.967 21.2905C157.967 20.5606 158.559 19.9689 159.289 19.9689V19.9689C160.019 19.9689 160.61 20.5606 160.61 21.2905V33.3113C160.61 37.1231 157.52 40.2132 153.709 40.2132V40.2132C151.574 40.2132 149.842 39.548 148.51 38.2177C147.179 36.8681 146.513 35.1714 146.513 33.1277C146.513 31.1225 147.198 29.4451 148.569 28.0955C149.959 26.7266 151.604 26.0422 153.503 26.0422C154.51 26.0422 155.463 26.2412 156.363 26.6394C156.707 26.7917 156.91 27.1438 156.91 27.5202V27.5202C156.91 28.3561 155.923 28.8858 155.115 28.6724C154.608 28.5384 154.071 28.4715 153.503 28.4715C152.328 28.4715 151.33 28.9053 150.507 29.7729C149.704 30.6212 149.303 31.7395 149.303 33.1277C149.303 34.5351 149.685 35.663 150.448 36.5114C151.232 37.3597 152.318 37.7839 153.709 37.7839V37.7839C156.061 37.7839 157.967 35.8772 157.967 33.5252V21.2905Z" fill="#1967D2"/>
<mask id="mask0_23_58" style="mask-type:luminance" maskUnits="userSpaceOnUse" x="95" y="0" width="26" height="20">
<path d="M109.346 8.47892V17.9875C109.342 18.3279 109.202 18.653 108.958 18.8922C108.713 19.1315 108.383 19.2656 108.039 19.2656C107.695 19.2656 107.365 19.1315 107.121 18.8922C106.876 18.653 106.736 18.3279 106.732 17.9875V8.47892C106.736 8.13851 106.876 7.81347 107.121 7.57422C107.365 7.33498 107.695 7.20082 108.039 7.20082C108.383 7.20082 108.713 7.33498 108.958 7.57422C109.202 7.81347 109.342 8.13851 109.346 8.47892ZM114.854 5.78732C117.955 6.45485 120.277 9.18665 120.277 12.455C120.277 16.2236 117.19 19.2797 113.382 19.2797H111.896C111.58 19.2787 111.275 19.165 111.037 18.9593C110.799 18.7537 110.644 18.47 110.601 18.1603H110.589V11.2658C110.602 10.9313 110.745 10.6148 110.989 10.3827C111.232 10.1506 111.558 10.0209 111.896 10.0209C112.234 10.0209 112.559 10.1506 112.803 10.3827C113.046 10.6148 113.19 10.9313 113.203 11.2658V16.6929H113.382C115.747 16.6929 117.662 14.7966 117.662 12.4557C117.662 10.4666 116.26 8.73808 114.299 8.3158L112.542 7.93739L112.27 6.17752C111.952 4.11461 110.148 2.58801 108.039 2.58801C105.93 2.58801 104.126 4.1148 103.808 6.17752L103.537 7.93739L101.78 8.3158C99.8191 8.73808 98.4163 10.4666 98.4163 12.4557C98.4163 14.7966 100.332 16.6929 102.697 16.6929H102.876V11.2658C102.877 10.9228 103.015 10.594 103.26 10.3514C103.505 10.1087 103.837 9.97194 104.183 9.97092C104.53 9.97194 104.862 10.1087 105.106 10.3514C105.351 10.594 105.489 10.9228 105.49 11.2658V18.1611H105.477C105.434 18.4708 105.279 18.7545 105.041 18.9601C104.803 19.1658 104.498 19.2795 104.182 19.2805H102.696C98.8886 19.2805 95.8014 16.225 95.8014 12.4557C95.8014 9.18665 98.1233 6.45485 101.224 5.78809C101.729 2.51051 104.588 0 108.039 0C111.49 0 114.349 2.51051 114.854 5.78732Z" fill="white"/>
</mask>
<g mask="url(#mask0_23_58)">
<path d="M120.277 0.000297546H95.802V19.2806H120.277V0.000297546Z" fill="#1967D2"/>
</g>
</svg>
